# xmcd
#
# Track frame offsets:
# 150
# 14759
# 29409
# 44761
# 72640
# 91567
# 110706
# 131314
# 153503
# 166899
# 184993
# 199362
# 218496
# 232008
# 252672
#
# Disc length: 3661 seconds
#
#
# Revision: 0
# Processed by: cddbd v1.5.2PL0 Copyright (c) Steve Scherf et al.
# Submitted via: FreeRIP 2.945 
#
DISCID=df0e4b0f
DTITLE=Paisagem Mística - Instrumental - 
DYEAR=1900
DGENRE=
TTITLE0=Gracias a la Vida
TTITLE1=Apache
TTITLE2=Carnavalito
TTITLE3=Cuando el cielo Ilora
TTITLE4=Camino a San Francisco
TTITLE5=Shalon
TTITLE6=El Condorpasa
TTITLE7=Pensando en Ti
TTITLE8=Galopera
TTITLE9=Tema para Jovens
TTITLE10=Cuzco
TTITLE11=Condor de Chavin
TTITLE12=Fistfull
TTITLE13=
TTITLE14=Guantanamera
EXTD=
EXTT0=
EXTT1=
EXTT2=
EXTT3=
EXTT4=
EXTT5=
EXTT6=
EXTT7=
EXTT8=
EXTT9=
EXTT10=
EXTT11=
EXTT12=
EXTT13=
EXTT14=
PLAYORDER=
